<?xml version="1.0" encoding="utf-8"?>
<!DOCTYPE svg PUBLIC "-//W3C//DTD SVG 1.0//EN" "http://www.w3.org/TR/2001/REC-SVG-20010904/DTD/svg10.dtd">
<svg version="1.0" xmlns="http://www.w3.org/2000/svg" width="2400px" height="3378px" viewBox="0 0 2400 3378" preserveAspectRatio="xMidYMid meet">
 <g fill="#d2a72e">
  <path d="M553.89 3366.11 c-35.56 -32.78 -63.61 -136.11 -83.06 -305.56 -3.61 -32.5 -7.5 -74.17 -8.33 -92.5 -0.83 -18.33 -2.22 -38.33 -3.06 -44.44 l-1.11 -11.11 -159.17 -0.28 c-134.17 0 -169.44 -0.83 -226.39 -5.83 -36.94 -3.06 -68.06 -6.39 -69.17 -7.5 -1.11 -1.11 33.61 -37.22 77.22 -80.28 56.39 -55.83 87.5 -88.89 108.06 -115 l28.89 -36.94 26.94 0 26.94 0 -7.22 -22.22 c-3.89 -11.94 -6.39 -22.78 -5.28 -23.89 2.22 -2.22 104.44 -27.78 122.22 -30.28 7.22 -1.11 13.61 -3.06 14.44 -4.17 0.83 -1.39 -3.06 -14.72 -8.33 -29.72 -43.61 -121.67 -86.39 -304.44 -106.67 -456.39 -18.33 -136.67 -23.06 -205.83 -24.44 -368.61 -1.39 -144.44 -1.39 -145.28 4.17 -145.28 5.56 0 170 -29.44 178.33 -31.94 3.33 -1.11 4.17 -7.22 3.61 -36.67 -0.28 -19.72 -1.94 -163.06 -3.61 -318.89 -1.39 -155.83 -3.61 -315 -4.44 -353.89 l-1.94 -70.28 -19.72 1.39 c-10.83 0.83 -38.33 3.61 -61.39 6.11 -22.78 2.22 -55.28 5.56 -72.22 7.22 -16.67 1.39 -46.39 5.28 -65.83 8.33 -19.44 3.06 -40.56 5.28 -47.22 4.72 l-11.94 -0.83 -3.33 -16.67 c-1.94 -9.17 -3.89 -28.89 -4.17 -43.89 -0.28 -23.33 0.28 -28.33 5.28 -34.72 l5.56 -7.5 153.06 -0.83 153.33 -0.56 1.11 -6.39 c0.56 -3.33 4.44 -48.06 8.33 -99.17 4.17 -51.11 13.89 -164.72 21.67 -252.5 l14.17 -159.72 -6.11 -4.17 c-16.39 -11.11 -34.72 -30.56 -41.39 -43.33 -6.11 -11.39 -7.5 -17.5 -7.5 -34.72 0.28 -43.33 26.11 -73.89 78.89 -91.94 16.67 -5.83 73.61 -7.78 76.67 -2.5 0.83 1.39 3.89 2.78 6.39 2.78 8.61 0 37.78 15.83 51.11 27.5 19.44 17.22 28.61 38.06 28.61 64.17 -0.28 30.28 -12.78 53.06 -39.44 71.39 -11.94 8.06 -14.72 11.67 -14.72 17.78 0 7.78 3.61 49.17 23.89 283.06 5.56 63.33 12.22 140.28 14.72 170.83 l4.72 55.56 151.11 1.39 151.39 1.39 4.72 9.72 c10.28 20.28 4.17 75.56 -9.44 88.06 -5.83 5 -1.94 5.28 -86.94 -5.83 -53.61 -7.22 -159.72 -16.11 -169.72 -14.44 l-9.44 1.94 0 295 c0 162.22 -0.83 318.33 -1.94 347.22 -1.39 43.61 -1.11 51.94 2.22 51.94 7.5 0 90.28 -43.33 123.33 -64.44 78.89 -50.28 146.67 -116.67 198.61 -193.89 9.17 -13.89 18.61 -25 20.83 -25 2.22 0 5.83 3.33 8.06 7.78 7.5 14.17 47.78 67.22 72.78 95.28 77.78 88.06 182.78 155.83 312.5 201.94 49.72 17.78 88.89 29.17 91.11 26.67 2.5 -2.78 11.11 -62.5 20.28 -138.61 8.06 -68.89 8.89 -193.89 1.39 -228.61 -7.22 -33.33 -13.61 -48.89 -32.5 -78.33 -19.17 -30 -23.33 -41.11 -21.39 -56.39 3.33 -25.28 21.39 -34.17 38.61 -19.17 13.06 11.94 24.72 32.22 46.39 82.78 25.28 59.17 28.06 71.94 28.06 135 0 95 -13.61 211.94 -33.06 284.17 -4.72 16.67 -8.06 30.83 -7.5 31.11 2.5 2.5 108.06 24.17 179.44 36.67 45 8.06 84.72 15 88.33 15.83 l6.11 1.11 0 61.94 c-0.28 343.61 -43.61 640.83 -130.28 894.44 -7.78 22.78 -13.61 42.22 -12.78 43.33 0.56 1.39 6.67 3.06 13.06 4.17 10.83 1.67 88.61 20 113.89 26.94 l10.28 2.5 -6.94 20 c-3.61 10.83 -6.67 20.83 -6.67 21.94 0 1.39 9.72 2.5 21.39 3.06 l21.67 0.83 27.5 34.72 c18.33 23.06 55.28 61.94 109.72 115.56 l81.94 80.83 -23.33 3.33 c-81.39 11.39 -291.67 14.72 -430.56 7.22 -66.39 -3.89 -87.5 -4.17 -88.33 -1.67 -1.94 6.11 -43.06 65.83 -70.28 102.22 -90.28 120.56 -193.89 219.17 -315 300 -38.89 25.83 -111.11 67.5 -117.5 67.5 -6.11 0 -51.39 -24.44 -90.83 -49.17 -85.28 -53.61 -141.94 -99.44 -220.28 -177.78 -56.67 -56.39 -67.22 -66.11 -67.22 -59.72 0 1.11 -3.06 23.61 -6.94 49.72 -18.06 124.44 -39.72 196.11 -68.61 227.5 -10 10.83 -12.5 12.22 -23.33 12.22 -10.56 0 -14.17 -1.67 -25 -11.67z m32.78 -31.94 c14.72 -27.5 30 -84.72 42.22 -157.78 6.11 -36.11 18.33 -125.28 18.33 -133.33 0 -1.67 -9.44 -15.28 -21.39 -30.56 -26.39 -34.72 -80.28 -116.11 -102.22 -155 -13.33 -23.89 -17.78 -29.72 -22.78 -29.72 l-6.39 0 0 51.11 c0 140.56 29.72 349.44 61.11 429.72 6.94 17.78 18.89 38.61 21.94 38.61 1.11 0 5.28 -5.83 9.17 -13.06z m501.67 -21.94 c180.28 -102.22 331.67 -253.33 446.94 -446.67 12.78 -21.39 23.06 -40.28 23.06 -42.5 0 -2.5 -4.44 -3.61 -16.11 -3.61 l-15.83 0 -6.67 12.78 c-13.33 24.72 -66.39 103.06 -93.89 138.06 -80.28 101.94 -163.61 180.56 -260.56 245 -45.28 30.28 -105.56 65.28 -111.94 65.28 -7.22 0 -61.67 -31.39 -104.72 -60 -145.28 -96.94 -258.06 -217.22 -360.56 -384.17 -10 -16.39 -10.56 -16.94 -22.22 -16.94 -20.83 0 -21.11 1.94 -3.33 33.06 91.11 162.5 236.67 319.72 387.5 418.61 36.11 23.61 97.5 59.44 102.22 59.44 1.94 0 18.33 -8.33 36.11 -18.33z m29.17 -91.11 c136.11 -84.44 250 -196.39 344.72 -339.17 41.94 -63.06 44.72 -67.78 40 -69.17 -6.94 -2.22 -147.78 -15.56 -213.33 -20.28 -87.78 -6.39 -346.94 -6.39 -458.33 0.28 -106.11 6.11 -220 17.78 -225.28 23.06 -4.72 4.72 55.56 96.11 101.67 153.61 70.28 88.06 147.78 160.56 240.28 224.17 34.17 23.33 70.56 45.83 93.06 57.22 l13.61 6.67 18.33 -9.72 c10 -5.56 30.28 -17.5 45.28 -26.67z m-686.94 -343.06 l20.83 -1.67 -21.67 -3.61 c-11.67 -1.67 -37.5 -5.56 -56.94 -8.06 l-35.56 -4.72 -14.72 -43.33 c-8.06 -23.61 -20.28 -59.72 -27.22 -79.72 l-12.5 -36.94 -25.56 0.28 -25.28 0 -23.61 29.72 c-13.06 16.11 -49.17 54.72 -80.28 85.83 -31.39 30.83 -56.39 56.67 -55.56 57.5 1.11 1.11 72.22 5.83 123.33 8.33 28.33 1.39 210.28 -1.39 234.72 -3.61z m1520.56 -0.56 c33.61 -1.67 65.56 -3.89 70.83 -5 l9.17 -1.67 -49.17 -47.22 c-41.39 -39.44 -99.17 -102.78 -110.83 -121.39 -2.22 -3.89 -6.67 -5 -18.33 -5 -20.56 0 -27.22 2.22 -29.44 9.44 -0.83 3.06 -13.06 39.17 -26.67 79.72 l-25 73.89 -15.56 1.67 c-8.61 1.11 -30.28 3.61 -47.78 6.11 -17.5 2.22 -33.06 4.17 -34.44 4.17 -1.39 0 -1.67 0.83 -0.56 2.22 5.56 5.28 188.33 7.5 277.78 3.06z m-314.44 -25 c24.72 -3.06 46.94 -6.67 48.89 -7.78 4.17 -2.22 -57.5 -14.17 -73.61 -14.17 -10 0 -11.39 0.83 -16.94 12.5 -6.39 13.06 -6.94 15.28 -5 15.28 0.83 0 21.67 -2.5 46.67 -5.83z m-1178.33 -8.33 c0 -8.61 -0.28 -8.61 -10.28 -6.67 -21.39 3.89 -25.28 10.83 -7.78 13.33 17.78 2.5 18.06 2.5 18.06 -6.67z m-70.83 -28.61 c26.11 -5.56 110.83 -20 155.56 -26.94 260.56 -39.44 594.44 -46.67 875 -18.89 103.06 10 199.17 24.17 286.94 41.94 24.44 5 43.61 7.5 44.72 6.11 2.78 -3.06 59.44 -173.33 58.33 -174.72 -2.22 -1.67 -102.22 -23.61 -152.5 -33.06 -90.56 -16.94 -208.06 -31.67 -337.5 -42.22 -117.5 -9.44 -395.83 -8.06 -551.39 2.78 -58.61 4.17 -66.67 5 -164.44 16.94 -111.39 13.89 -288.33 47.5 -297.78 56.94 -4.72 4.72 52.78 175 58.89 175 2.5 0 13.61 -1.94 24.17 -3.89z m75.28 -241.39 c0.28 -0.28 -7.5 -24.17 -17.22 -53.33 -60.83 -182.22 -96.67 -372.22 -112.22 -595.83 -3.89 -53.61 -6.94 -228.06 -4.44 -247.22 l1.94 -15.56 38.06 -6.39 c99.44 -16.67 212.78 -42.22 276.94 -61.94 111.11 -34.17 207.5 -81.94 278.61 -138.06 33.33 -26.11 89.17 -84.72 112.78 -117.78 12.5 -17.78 20.56 -26.94 24.17 -26.94 2.78 0 5.28 1.11 5.28 2.5 0 4.44 43.33 60.56 65.28 84.72 56.94 62.5 136.11 117.5 223.61 155.28 50.56 21.94 163.89 58.33 168.33 54.17 3.06 -3.06 9.17 -31.39 7.22 -33.06 -1.11 -0.83 -18.89 -6.94 -39.44 -13.61 -97.5 -30.28 -190 -75 -259.44 -124.44 -55.83 -40 -131.67 -117.22 -159.72 -162.5 -10.28 -16.39 -15.56 -14.17 -37.78 16.94 -24.17 33.61 -91.11 101.11 -126.39 127.22 -93.33 70 -198.33 118.33 -343.33 159.17 -50.28 14.17 -165.28 39.44 -220.56 48.89 -23.61 3.89 -44.72 7.78 -46.39 8.33 -6.67 2.22 -3.61 188.61 4.72 301.39 16.39 216.11 51.67 399.44 111.67 583.06 l19.44 59.17 14.17 -1.67 c7.78 -1.11 14.44 -2.22 14.72 -2.5z m1225.83 -47.5 c82.5 -252.5 122.5 -518.89 122.5 -814.44 l0 -78.61 -10.28 -1.94 c-48.33 -8.33 -147.78 -28.06 -180.56 -35.83 -22.22 -5.28 -43.06 -9.72 -46.67 -9.72 -5 0 -7.22 3.06 -11.94 15.56 -3.89 10.83 -4.72 15.83 -2.5 16.39 8.61 3.06 98.33 21.39 149.17 30.28 31.39 5.56 59.72 10.83 63.33 11.67 l6.11 1.11 0 85.83 c0 281.67 -38.89 540.28 -115.28 767.78 -10 29.44 -18.06 54.72 -18.06 56.67 0 3.06 6.94 5 21.39 6.11 5.56 0.28 7.78 -4.44 22.78 -50.83z m-1126.11 31.94 c261.39 -38.89 617.5 -43.33 904.17 -11.11 43.89 5 129.44 16.94 147.5 20.83 6.94 1.39 7.5 0.28 17.22 -27.22 61.11 -172.78 99.44 -363.33 117.5 -580 4.44 -53.61 8.89 -216.67 7.22 -259.72 l-0.83 -22.5 -93.61 -18.89 c-51.39 -10.56 -98.06 -19.72 -103.61 -20.28 l-10.28 -1.39 -6.94 19.17 c-4.17 10.28 -10.83 28.06 -15 39.44 -4.44 11.39 -10 21.94 -12.5 23.61 -6.67 3.89 -16.11 -5 -16.11 -15.56 0 -6.11 13.89 -53.89 21.39 -73.61 0.83 -1.67 -2.78 -3.89 -8.06 -5 -28.06 -6.11 -110 -31.11 -137.78 -41.94 -66.39 -26.11 -140.83 -68.89 -192.22 -110.28 -30.56 -24.72 -76.11 -71.67 -100 -103.06 l-20.56 -27.22 -5.83 6.94 c-3.06 3.61 -13.06 16.39 -22.22 28.33 -93.33 121.39 -252.78 208.61 -476.94 261.39 -43.61 10.28 -141.39 30 -171.39 34.44 -10 1.67 -21.94 3.61 -26.39 4.44 l-8.06 1.67 1.67 110.28 c1.67 111.67 3.33 141.67 13.33 240.56 16.94 168.33 50.83 329.44 101.11 480.56 20 60 18.89 58.06 31.39 56.11 5.83 -0.83 35.28 -5.28 65.83 -10z m-43.06 -1022.5 c44.72 -10.83 93.89 -25.28 129.44 -37.78 l28.06 -9.72 1.67 -20 c1.11 -11.11 2.5 -178.61 3.61 -372.5 l1.94 -352.5 34.44 1.67 c44.44 2.22 146.11 11.94 199.44 18.61 22.78 3.06 42.5 4.44 43.89 3.06 1.11 -1.11 1.94 -11.94 1.39 -23.89 l-0.83 -21.94 -154.72 0.83 c-85.28 0.28 -155 0 -155 -0.83 0 -0.83 -5 -57.5 -11.11 -125.83 -5.83 -68.33 -15.28 -176.94 -20.83 -241.11 -5.28 -64.17 -11.11 -128.89 -12.5 -144.17 -4.72 -46.67 -4.72 -46.39 10.28 -54.44 29.17 -15.28 42.5 -33.89 42.5 -59.17 0 -29.17 -22.78 -54.72 -58.06 -65 -26.67 -7.78 -63.33 -1.67 -86.39 14.44 -25.28 17.5 -35 48.89 -22.5 74.44 7.22 15 13.89 21.11 35 33.06 13.89 7.78 16.67 10.56 16.11 16.11 -0.56 3.89 -6.94 75 -14.44 158.33 -12.5 137.22 -16.67 183.89 -29.17 342.22 -2.22 27.22 -5 50.56 -5.83 52.22 -1.11 1.67 -54.44 2.78 -153.89 2.78 -118.61 0 -153.06 0.83 -156.94 3.61 -4.17 3.06 -4.44 6.11 -2.78 22.5 l1.94 18.89 14.17 -1.67 c78.89 -10 142.78 -15.83 240.83 -22.78 l26.94 -1.67 1.67 48.06 c0.83 26.67 2.78 167.22 4.44 312.22 3.89 359.17 5.56 440.28 9.44 440.28 1.67 0 18.89 -3.89 37.78 -8.33z"/>
  <path d="M368.33 2750.83 c-8.06 -53.89 -10.56 -76.11 -9.17 -77.5 0.83 -1.11 7.22 -2.5 14.44 -3.06 12.5 -1.67 12.5 -1.39 12.5 6.67 0 4.72 2.5 24.44 5.56 44.17 3.06 19.44 5 35.83 4.72 36.11 -0.28 0.28 -6.39 1.11 -13.61 2.22 l-12.78 1.94 -1.67 -10.56z"/>
  <path d="M1683.61 2746.67 c-20.28 -10 -28.61 -30 -22.5 -55 7.22 -30.28 40.28 -42.5 68.89 -25 13.33 8.33 20 20.83 20 38.89 0 38.61 -31.67 58.33 -66.39 41.11z m33.06 -19.17 c7.22 -13.89 7.78 -42.78 0.83 -50.28 -5.56 -6.39 -15.28 -6.39 -20.83 0 -11.11 12.5 -14.72 48.89 -5.56 56.67 11.39 10 18.06 8.33 25.56 -6.39z"/>
  <path d="M435.28 2747.22 c-19.72 -3.61 -32.5 -21.94 -32.5 -46.67 0 -15 6.94 -27.78 20.28 -37.78 6.11 -4.44 13.06 -6.11 30 -6.94 l21.94 -0.83 0 9.72 c0 12.5 -3.61 15 -11.11 7.5 -11.11 -11.11 -28.33 -4.44 -33.06 12.78 -1.94 6.67 -1.94 15 0 24.17 3.61 19.17 9.72 26.94 21.67 26.94 6.39 0 6.67 -0.56 4.72 -15 -1.39 -13.89 -1.11 -15 4.72 -16.67 3.33 -0.83 9.44 -1.67 13.89 -1.67 7.22 0 7.5 0.56 8.06 13.89 0 7.78 0.28 15.56 0.56 17.22 0.56 8.33 -30.83 16.94 -49.17 13.33z"/>
  <path d="M500 2731.39 c0 -4.44 -1.94 -23.89 -4.44 -43.61 -5.28 -40 -5 -40.56 13.06 -40.56 l10 0 3.89 36.94 3.89 36.67 13.33 -0.83 c12.22 -1.11 13.06 -0.56 13.06 5.83 0 6.39 -1.39 6.94 -22.78 9.72 -30.56 4.44 -30 4.44 -30 -4.17z"/>
  <path d="M1613.33 2734.17 c-12.5 -1.39 -12.5 -1.67 -6.39 -38.33 5.56 -34.44 5.56 -40.28 -1.11 -40.28 -10 0 -13.33 -2.78 -11.94 -10 1.39 -7.78 0.56 -7.78 30.83 -2.5 38.06 6.94 36.94 6.39 35.83 13.33 -0.83 5.28 -2.5 6.11 -11.11 5.56 -11.67 -0.83 -11.11 -1.94 -16.11 38.06 -3.61 29.17 -5 36.11 -7.78 35.56 -1.11 -0.28 -6.67 -0.83 -12.22 -1.39z"/>
  <path d="M566.39 2728.89 c0 -1.39 -2.22 -21.11 -5 -44.17 -2.78 -22.78 -4.17 -42.5 -3.33 -43.33 0.83 -1.11 13.33 -2.78 27.5 -3.89 l26.11 -1.94 -1.11 6.67 c-0.56 5.28 -2.78 6.67 -13.33 7.78 -6.94 0.83 -12.22 2.22 -11.67 3.61 0.28 1.11 0.56 5.83 0.56 10.28 0 8.06 0.28 8.33 13.61 8.33 11.11 0 13.89 1.11 15 5.28 1.39 5.83 -4.44 8.61 -18.33 8.61 -7.5 0 -7.78 0.56 -6.94 11.94 l0.83 11.67 14.72 0.83 c13.06 0.83 14.44 1.39 14.44 7.22 0 5.83 -1.67 6.67 -17.22 8.33 -9.72 1.11 -21.67 2.5 -26.39 3.61 -5 0.83 -9.17 0.28 -9.44 -0.83z"/>
  <path d="M1536.67 2721.67 c-13.06 -2.78 -16.11 -6.67 -13.33 -17.5 2.22 -8.89 6.39 -8.89 13.33 0 6.11 8.06 17.5 9.17 20 2.22 1.39 -3.61 -2.22 -8.61 -13.33 -19.17 -14.72 -13.33 -15.56 -15 -15.56 -27.22 0 -11.11 1.39 -14.72 8.33 -21.67 8.06 -7.78 9.72 -8.33 23.89 -7.22 19.72 1.67 24.44 6.11 20.28 18.89 l-3.33 9.17 -5.28 -7.22 c-3.61 -5 -8.06 -7.5 -13.33 -7.5 -15.56 0 -13.89 8.61 4.17 20.83 14.44 9.72 19.44 19.72 17.22 33.89 -3.33 19.44 -19.44 28.06 -43.06 22.5z"/>
  <path d="M638.33 2720.28 c-6.67 -1.11 -7.78 -2.5 -7.78 -10.83 0 -10.83 1.67 -11.39 13.61 -4.44 6.67 3.61 9.72 3.89 13.33 1.67 9.44 -5.83 5.83 -13.06 -10.83 -21.11 -17.78 -8.61 -21.67 -13.89 -21.67 -29.72 0 -7.78 2.22 -13.33 7.22 -19.44 6.67 -8.06 8.61 -8.61 25 -8.61 l17.78 0 0 9.17 c0 12.5 -2.5 14.17 -10.28 6.94 -5.56 -5 -7.22 -5.56 -13.61 -2.78 -10.28 5 -7.5 12.22 6.94 17.5 20 7.22 25.28 13.61 25.28 30.28 0 12.22 -1.11 15.56 -8.06 22.5 -4.44 4.44 -10.56 8.06 -13.33 8.06 -2.78 0 -7.5 0.56 -10.56 1.11 -3.06 0.56 -8.89 0.28 -13.06 -0.28z"/>
  <path d="M1488.33 2714.72 c-4.44 -0.56 -7.78 -1.94 -7.78 -3.06 0 -1.11 1.94 -19.44 4.17 -40.83 2.22 -21.39 4.17 -40.56 4.17 -42.5 0 -2.5 3.89 -3.33 13.33 -2.78 7.22 0.56 13.06 2.22 13.06 3.61 0 1.67 -1.94 21.94 -4.17 45.28 -4.17 46.67 -2.22 43.33 -22.78 40.28z"/>
  <path d="M698.61 2710.56 c-0.56 -1.94 -1.67 -16.11 -2.78 -31.39 -0.83 -15.28 -2.22 -33.61 -3.33 -40.83 l-1.67 -13.33 13.89 0 13.89 0 1.94 25.83 c1.11 13.89 2.5 33.89 3.61 44.44 l1.67 18.61 -13.06 0 c-8.06 0 -13.33 -1.39 -14.17 -3.33z"/>
  <path d="M1038.89 2708.89 c0 -3.06 2.22 -6.11 5.56 -6.94 5.28 -1.39 5.56 -3.89 5.56 -48.61 l0 -46.94 8.61 -1.94 c20.83 -4.17 19.72 -6.94 18.61 45.56 -0.83 46.39 -0.83 47.22 -8.06 54.44 -4.44 4.44 -11.39 7.78 -18.61 8.61 -10.28 1.39 -11.67 0.83 -11.67 -4.17z"/>
  <path d="M736.11 2703.61 c9.17 -30.56 25 -85.28 25 -86.11 0 -0.56 3.89 -0.83 8.61 -0.28 7.22 0.56 9.44 2.78 13.06 11.94 2.22 6.11 10.28 25.28 17.78 42.78 7.22 17.5 13.06 31.94 12.78 32.22 -0.56 0.28 -6.94 1.39 -14.17 2.22 -13.06 1.94 -13.33 1.67 -16.39 -6.67 -2.78 -7.78 -3.61 -8.33 -15.83 -7.5 -11.67 0.83 -13.06 1.67 -15.56 10 -1.94 7.22 -3.89 8.89 -10 8.89 -6.94 0 -7.5 -0.56 -5.28 -7.5z m36.67 -24.72 c2.5 -2.22 -4.17 -17.78 -7.78 -17.78 -3.06 0 -6.67 8.33 -6.67 16.11 0 3.33 11.39 4.72 14.44 1.67z"/>
  <path d="M1446.94 2709.17 c-2.22 -0.56 -6.11 -6.39 -8.33 -12.78 -6.11 -16.11 -13.61 -17.22 -13.61 -2.22 l0 11.39 -14.17 0 -14.44 0 1.67 -13.06 c0.83 -7.5 2.5 -23.89 3.33 -36.94 0.83 -13.06 2.22 -27.78 3.06 -32.78 l1.39 -9.17 20 1.67 c28.33 2.5 37.5 5.83 42.5 15.83 5.56 10.83 2.78 23.06 -7.22 30.28 l-7.5 5.83 9.17 21.94 9.17 21.94 -10.28 -0.28 c-5.56 -0.28 -12.22 -0.83 -14.72 -1.67z m-6.67 -55.28 c5.56 -5.83 4.44 -20.28 -1.94 -24.44 -6.39 -3.89 -7.78 -1.94 -9.72 14.72 -1.39 11.67 -0.83 14.17 2.78 14.17 2.5 0 6.39 -1.94 8.89 -4.44z"/>
  <path d="M854.17 2660 c-1.11 -24.17 -1.39 -44.44 -0.56 -45.28 1.11 -0.83 12.78 -2.22 26.39 -3.06 19.44 -1.11 26.39 -0.28 33.61 3.33 18.61 9.72 26.11 46.94 13.61 65.56 -11.67 16.94 -19.17 20.28 -46.39 21.67 l-24.44 1.11 -2.22 -43.33z m48.06 20.56 c2.22 -4.44 3.33 -14.17 2.78 -26.94 -1.11 -22.78 -6.67 -32.22 -18.61 -30.83 l-6.94 0.83 0.56 27.78 c0.56 15.28 1.39 30 2.22 32.78 2.22 7.5 15.28 5 20 -3.61z"/>
  <path d="M1340 2697.78 c-32.78 -15.56 -33.06 -69.44 -0.28 -84.72 11.11 -5.56 27.78 -6.11 40.56 -1.67 6.67 2.5 8.61 4.72 8.61 10.28 0 12.78 -3.89 15.28 -10.56 7.5 -8.33 -9.44 -20.56 -9.17 -28.06 0.28 -4.72 5.83 -5.83 11.39 -5.83 26.67 0 16.94 0.83 20 7.22 26.39 5.28 5 8.89 6.67 13.89 5.28 3.61 -0.83 9.72 -2.5 13.61 -3.33 5 -1.39 6.94 -0.56 6.94 2.22 0 14.17 -26.11 20.28 -46.11 11.11z"/>
  <path d="M946.67 2652.22 c-0.56 -25 -0.83 -45.56 -0.83 -45.56 0 -0.28 11.94 -1.11 26.39 -1.39 l26.39 -1.11 0.83 7.78 c0.83 7.22 0.56 7.5 -13.06 7.5 l-14.17 0 0 11.39 0 11.67 13.89 -1.67 c13.33 -1.67 13.89 -1.39 13.89 5 0 6.39 -1.11 6.94 -13.89 6.94 l-13.89 0 0 13.89 0 13.89 15.28 0 c14.17 0 15.28 0.56 15.28 6.67 0 6.11 -1.39 6.39 -21.39 8.33 -37.78 3.06 -33.61 8.33 -34.72 -43.33z"/>
  <path d="M1242.78 2691.94 c-11.94 -7.22 -15 -18.33 -15 -54.72 l0 -31.67 14.72 0 14.44 0 -0.83 33.61 c-1.11 36.67 0.56 41.39 13.61 41.39 13.06 0 16.39 -8.33 16.39 -42.22 l0 -30 9.44 0 9.44 0 -1.11 17.5 c-0.83 9.44 -1.67 24.17 -2.22 32.5 -1.39 19.17 -6.11 30 -15.83 35 -11.11 5.56 -32.78 5 -43.06 -1.39z"/>
  <path d="M1094.17 2652.78 c-0.28 -22.78 -0.56 -43.33 -0.83 -45 -0.28 -2.78 7.22 -3.89 26.94 -4.44 l26.94 -0.83 0 7.22 c0 6.39 -0.83 6.94 -13.89 6.94 l-13.89 0 0 11.11 0 11.11 13.89 0 c13.06 0 13.89 0.56 13.89 6.94 0 6.39 -0.83 6.94 -13.89 6.94 l-13.89 0 0 13.89 0 13.89 13.89 0 c13.06 0 13.89 0.56 13.89 6.94 0 6.94 0 6.94 -26.39 6.94 l-26.39 0 -0.28 -41.67z"/>
  <path d="M1163.06 2692.5 c-6.11 -1.67 -5.28 -11.39 1.11 -15.56 3.61 -2.22 5.83 -1.67 9.44 1.67 4.72 5 9.17 5.83 16.39 3.06 8.89 -3.33 4.72 -11.94 -10.83 -21.94 -16.67 -10.56 -21.94 -19.44 -19.44 -33.06 3.33 -16.39 13.33 -23.89 31.94 -23.89 16.67 0 22.78 3.89 20.56 13.33 -2.78 11.11 -5.83 13.06 -9.44 6.11 -2.5 -4.44 -5.28 -5.56 -11.94 -5 -14.44 1.39 -12.78 8.61 4.72 18.33 11.67 6.94 15.83 10.83 18.33 18.89 4.17 12.78 0 29.44 -9.17 35.83 -5.83 3.89 -29.72 5.28 -41.67 2.22z"/>
  <path d="M476.94 2423.06 c-1.11 -0.83 -1.94 -53.33 -1.94 -116.67 l0 -114.72 30 0 29.72 0.28 46.94 62.5 c25.56 34.44 47.78 62.22 49.17 61.67 1.11 -0.56 19.44 -28.33 40.83 -61.94 l38.33 -61.11 31.11 -0.83 31.11 -0.83 0 116.94 0 116.67 -46.39 -0.56 -46.67 -0.83 -0.83 -67.22 c-0.56 -51.67 -1.39 -67.5 -4.17 -67.5 -3.89 0 -3.33 -0.56 -35.83 52.5 -31.11 51.39 -32.5 53.06 -46.94 53.06 -14.17 0 -17.5 -3.33 -59.44 -60.83 -16.94 -23.06 -32.22 -41.94 -33.89 -41.94 -2.78 0 -3.61 15.28 -3.61 66.67 l0 66.67 -7.78 0 c-4.44 0 -8.89 -0.83 -9.72 -1.94z"/>
  <path d="M886.11 2308.33 l0 -116.67 48.61 0 48.61 0 -0.56 116.11 -0.83 115.83 -47.78 0.83 -48.06 0.56 0 -116.67z"/>
  <path d="M1100 2308.33 l0 -116.67 101.39 0 101.39 0 0 6.94 0 6.94 -55.56 0 -55.56 0 0 41.67 0 41.67 26.39 0 c26.39 0 26.39 0 26.39 6.94 0 6.94 0 6.94 -26.39 6.94 l-26.39 0 0 54.17 0 54.17 57.22 0 56.94 0 -0.83 6.39 -0.83 6.11 -101.94 0.83 -102.22 0.56 0 -116.67z"/>
  <path d="M1415.83 2423.06 c-1.11 -0.83 -1.94 -53.89 -1.94 -117.78 l0 -116.11 46.67 -0.83 c25.56 -0.56 46.94 -0.56 47.78 0 0.56 0.56 1.67 50.83 2.22 111.94 l1.11 110.83 59.44 0 59.44 0 0 6.94 0 6.94 -106.39 0 c-58.61 0 -107.5 -0.83 -108.33 -1.94z"/>
  <path d="M1125.56 1972.22 l0.83 -114.44 30 -11.94 c22.22 -9.17 30.28 -11.11 31.39 -8.61 0.83 1.94 1.11 21.94 0.56 44.44 -0.83 35.28 -0.28 40.28 3.33 38.89 8.33 -3.61 40.56 -6.94 51.67 -5.28 36.94 5.56 64.72 46.11 61.67 90 -2.5 32.78 -20 58.61 -48.89 71.94 -12.78 5.83 -18.06 6.67 -33.61 5.56 -10.28 -0.83 -23.33 -3.61 -29.44 -6.39 -11.11 -5.56 -13.33 -5.28 -63.33 8.89 -4.44 1.39 -4.72 -4.72 -4.17 -113.06z m96.39 84.72 c12.22 -10.56 18.06 -28.61 18.06 -56.67 0.28 -41.67 -11.94 -66.94 -32.22 -66.94 -18.89 0 -19.44 1.67 -21.11 58.89 -0.56 28.33 -0.56 54.72 0.28 58.33 3.61 13.61 22.22 16.94 35 6.39z"/>
  <path d="M609.72 2080.83 c-18.06 -4.72 -32.5 -15.56 -40 -30 -1.67 -3.33 -3.06 -13.33 -3.06 -22.22 0 -19.17 6.11 -30.83 21.39 -40.83 10.83 -7.22 38.33 -15.56 50.83 -15.56 10.28 0 11.67 -2.22 6.94 -11.11 -5 -9.44 -16.94 -19.44 -23.61 -19.44 -2.5 0 -10.56 3.06 -18.06 6.94 -10 5 -14.44 5.83 -17.22 3.61 -6.39 -5.28 -3.89 -9.72 9.72 -18.33 19.44 -12.5 32.5 -16.94 53.33 -18.89 15.83 -1.67 20.83 -0.83 31.11 4.17 6.39 3.06 14.72 9.72 18.06 14.72 5 7.5 41.11 82.78 55.28 115.28 l3.89 9.17 -26.67 12.5 c-14.72 6.94 -27.5 12.5 -28.06 12.5 -0.56 0 -2.5 -3.61 -3.89 -8.33 -3.61 -10.28 -6.67 -10.28 -23.06 -1.11 -10.56 5.83 -17.5 7.5 -35.83 8.33 -12.5 0.56 -26.39 0 -31.11 -1.39z m67.5 -22.5 c4.72 -3.06 8.89 -6.67 8.89 -8.06 0 -6.11 -28.89 -64.17 -31.94 -64.17 -5.56 0 -17.78 10.83 -22.22 19.44 -5.28 10.28 -5.28 31.39 0 41.67 8.61 16.94 27.78 21.67 45.28 11.11z"/>
  <path d="M932.5 2079.17 c-23.61 -8.89 -38.06 -27.78 -38.06 -49.44 0 -31.67 23.61 -51.39 66.67 -56.39 9.44 -1.11 16.67 -3.06 16.67 -5 0 -5.28 -10.56 -19.17 -17.22 -22.78 -9.17 -5.28 -13.33 -4.72 -28.89 3.06 -12.5 6.39 -13.89 6.67 -16.94 2.22 -4.72 -6.39 0.28 -11.67 22.22 -23.33 15.28 -8.33 20 -9.44 44.17 -10.28 31.11 -1.39 36.67 0.83 47.78 18.33 5.83 9.44 57.22 118.06 57.22 121.39 0 0.83 -11.39 6.94 -25.28 13.89 -20 10.28 -26.11 12.22 -29.17 9.44 -2.22 -1.67 -3.89 -5 -3.89 -7.22 0 -7.22 -7.78 -6.67 -22.5 1.11 -12.5 6.39 -18.89 7.78 -38.61 8.33 -15.28 0.56 -27.22 -0.83 -34.17 -3.33z m75.56 -22.22 l8.33 -7.22 -14.44 -30.56 c-7.78 -16.94 -15.83 -31.39 -17.78 -32.22 -6.11 -2.5 -19.72 10 -24.44 22.78 -10.56 27.22 3.33 54.17 27.78 54.17 8.89 0 14.17 -1.94 20.56 -6.94z"/>
  <path d="M1541.67 2080.83 c-12.5 -4.17 -23.61 -10.83 -31.67 -19.44 -6.67 -6.94 -8.33 -11.67 -9.44 -25.28 -1.67 -21.11 0.28 -28.33 10.83 -40 9.72 -11.11 31.11 -20.28 53.89 -22.78 8.61 -1.11 16.11 -2.78 16.67 -3.89 1.94 -3.33 -14.44 -24.44 -20.83 -26.39 -6.11 -1.94 -23.06 2.78 -31.67 8.61 -5.83 4.17 -12.78 0.83 -12.78 -5.83 0 -4.17 21.11 -18.33 37.22 -24.72 13.61 -5.56 37.22 -8.61 50 -6.11 18.06 3.33 26.11 13.61 50.56 64.17 12.22 26.11 25.83 54.17 29.72 63.06 l6.94 15.56 -26.67 13.06 c-25 11.94 -26.94 12.5 -30.28 8.06 -1.94 -2.78 -3.61 -6.67 -3.61 -8.61 0 -5.28 -4.72 -4.44 -21.67 3.89 -11.94 5.83 -20 7.5 -37.78 8.33 -12.5 0.28 -25.56 -0.28 -29.44 -1.67z m68.89 -22.5 c4.72 -3.06 8.89 -6.39 8.89 -7.5 0 -5.56 -29.44 -64.72 -32.22 -64.72 -5.28 0 -17.5 11.11 -21.94 19.44 -5.28 10.28 -5.28 31.39 0 41.67 8.61 16.94 27.78 21.67 45.28 11.11z"/>
  <path d="M402.78 1960.83 l0 -116.94 48.06 1.11 c46.67 0.83 48.06 1.11 61.11 8.61 26.11 15.56 38.89 47.78 31.11 78.33 -7.78 29.72 -28.06 48.06 -56.11 51.11 l-16.11 1.67 -0.83 46.67 -0.56 46.39 -33.33 0 -33.33 0 0 -116.94z m107.78 -1.67 c22.22 -17.78 28.06 -48.89 13.61 -73.61 -10 -17.5 -22.78 -25 -40 -23.89 l-13.33 0.83 -0.83 50 c-0.28 27.22 0 51.67 0.83 53.61 2.78 7.22 27.78 2.78 39.72 -6.94z"/>
  <path d="M800.56 1967.78 l0.83 -110 26.39 -10.83 c14.44 -5.83 28.06 -10.56 30 -10.56 2.78 -0.28 3.33 24.72 2.78 120 l-0.83 120 -30 0.83 -29.72 0.83 0.56 -110.28z"/>
  <path d="M1345.83 2074.17 c-0.83 -1.94 -1.11 -33.89 -0.83 -71.39 l0.83 -67.78 21.39 -9.17 c11.67 -5 25.28 -10 30 -10.83 7.5 -1.67 8.33 -1.11 8.33 5.28 l0 7.22 12.78 -6.67 c16.39 -8.61 33.89 -9.17 50.28 -1.11 14.72 7.22 20 15.28 13.89 21.39 -3.89 3.61 -5.28 3.33 -13.06 -3.06 -20.83 -17.5 -51.39 -9.72 -60.83 15.56 -1.94 4.72 -3.06 31.67 -3.06 66.11 l0 58.06 -29.17 0 c-21.11 0 -29.72 -1.11 -30.56 -3.61z"/>
  <path d="M1434.44 1438.33 c13.06 -97.5 16.67 -162.5 13.06 -234.17 -3.89 -77.5 -11.11 -104.17 -28.61 -106.39 -3.61 -0.56 -14.72 3.06 -24.72 7.78 -31.39 14.72 -58.61 9.44 -68.33 -13.33 -9.17 -21.67 1.67 -70 21.67 -97.78 6.67 -9.17 9.72 -11.11 17.78 -11.11 13.33 0 15.56 9.44 7.22 31.94 -5.83 16.39 -5.83 16.67 -0.83 23.61 7.22 9.44 25.28 19.72 33.89 18.89 5.28 -0.56 7.78 -3.61 11.94 -14.72 7.22 -19.17 14.44 -26.39 27.22 -26.39 18.89 0 34.44 21.67 46.11 63.89 7.22 25.56 6.94 126.11 -0.28 173.61 -9.17 60.83 -47.22 195.83 -55 195.83 -1.39 0 -1.94 -5.28 -1.11 -11.67z"/>
  <path d="M848.89 1379.17 c-6.11 -6.11 -14.17 -18.06 -18.06 -26.39 l-7.22 -15.28 0 -81.94 c0 -67.78 0.83 -86.39 5 -106.94 19.72 -98.89 77.5 -210 138.33 -265.83 65.28 -60.28 154.17 -106.94 245.56 -128.89 15 -3.61 33.06 -4.72 79.17 -5 62.78 0 81.67 2.5 80 11.39 -1.67 8.33 -20.56 14.72 -78.61 26.94 -69.17 14.44 -134.72 31.39 -169.44 43.33 -35 12.22 -104.72 47.22 -126.67 63.61 -56.94 43.06 -117.5 135.28 -138.89 211.11 -11.39 41.11 -17.78 108.61 -11.94 130.28 3.06 10.56 10.28 6.94 18.61 -8.61 4.17 -8.06 12.22 -19.44 17.78 -25.28 l10.28 -10.56 21.94 0.83 c21.67 0.83 22.22 0.83 28.33 -7.22 3.33 -4.72 14.44 -26.39 24.72 -48.61 42.5 -91.11 45.28 -95.83 62.22 -113.06 25 -25.56 51.39 -42.22 46.39 -29.17 -4.44 11.67 -9.17 37.5 -7.78 41.67 3.06 8.33 34.72 42.22 39.44 42.22 2.22 0 11.94 -7.22 21.11 -16.39 22.22 -21.67 63.06 -56.39 81.11 -68.89 19.44 -13.33 72.5 -31.39 92.5 -31.39 l15.28 0.28 -9.72 8.06 c-5.28 4.72 -25.83 18.06 -45.83 30 -52.5 31.39 -86.94 65.83 -98.89 98.89 -5.56 15.28 -16.94 23.89 -31.67 23.89 -14.44 0 -25.56 -3.89 -33.89 -11.67 -5.56 -5.28 -7.22 -5.28 -20 -2.22 -17.5 4.17 -27.22 0.28 -35 -14.72 -10.56 -19.44 -18.06 -12.5 -36.39 32.78 -7.78 19.17 -10.56 30 -11.67 47.22 -1.11 19.17 -2.5 25 -11.94 41.94 -7.5 13.89 -11.11 24.44 -12.22 36.11 -2.78 26.11 -3.61 28.61 -15.83 37.22 -7.78 5.83 -14.72 8.33 -21.94 8.33 -11.67 0 -10.28 1.94 -26.39 -36.11 -8.61 -20.56 -16.39 -22.22 -18.61 -4.44 -1.11 6.94 -4.17 19.17 -7.22 27.22 -3.06 8.06 -8.06 22.22 -11.39 31.39 -4.17 11.11 -6.94 26.39 -8.06 45.83 l-1.67 29.17 -10.83 -11.11z"/>
  <path d="M1614.44 1018.06 c-4.44 -3.61 -14.44 -19.44 -22.5 -34.72 -12.78 -25 -14.17 -30 -14.17 -45.83 0 -21.94 3.06 -30.56 16.11 -43.61 7.5 -8.06 12.22 -10.56 19.17 -10.56 l9.17 0 0 15 c0 11.11 1.11 15.28 4.44 16.67 6.67 2.5 22.78 -7.22 48.33 -29.44 35.28 -30.56 46.11 -38.33 52.78 -38.33 5.28 0 4.44 1.67 -6.67 14.44 -15.83 18.33 -27.22 40 -47.22 91.11 -21.94 55.83 -27.22 66.67 -32.5 69.72 -8.33 4.44 -18.33 2.78 -26.94 -4.44z"/>
  <path d="M1468.06 901.94 c-8.61 -6.67 -3.06 -20.28 31.39 -77.22 57.78 -95.56 80.83 -127.22 122.78 -169.44 82.5 -82.78 155.28 -136.39 236.67 -174.44 35.56 -16.67 62.5 -25.83 110.83 -38.06 93.61 -23.33 153.89 -19.72 219.17 12.78 28.61 14.44 51.94 31.94 85.83 65 49.17 48.06 66.67 78.89 62.78 110.83 -1.67 13.33 -1.11 16.11 6.67 28.33 4.72 7.5 8.61 16.11 8.61 19.17 0 3.06 9.17 14.72 20.83 26.67 20.56 21.39 26.39 30.83 26.39 43.06 0 7.22 -4.72 9.72 -17.5 9.72 -11.94 0 -20.56 -6.39 -38.33 -27.78 -38.61 -46.94 -53.33 -57.22 -64.72 -45.56 -6.67 6.67 -5.28 15.83 4.17 27.78 5 6.11 13.89 21.11 20 33.89 12.22 25 16.67 53.06 13.89 83.89 -2.78 27.22 -15 33.61 -41.11 21.11 -12.5 -5.83 -23.89 -13.89 -74.72 -53.06 -8.61 -6.67 -23.61 -14.44 -37.78 -19.17 -42.5 -14.44 -51.11 -25.56 -18.61 -23.33 25.83 1.94 47.22 10.56 83.06 34.44 18.06 11.94 30.83 18.61 36.67 18.89 l8.61 0.28 0.83 -18.89 c0.83 -21.11 -5 -37.78 -21.39 -60.28 -15 -20.83 -11.39 -44.72 10.28 -67.22 8.61 -9.17 11.67 -10.56 22.5 -10.56 10.56 0 15 1.94 28.33 12.5 8.89 6.94 16.67 11.39 17.5 10 0.83 -1.39 -2.22 -10 -6.94 -19.17 -6.11 -12.22 -14.44 -22.5 -30.83 -37.22 -12.5 -11.11 -32.5 -33.33 -44.72 -49.17 -36.67 -47.22 -65.28 -71.94 -102.78 -89.17 -52.78 -23.89 -153.06 -17.22 -255.28 16.67 -113.33 37.78 -195.83 100.56 -275 209.72 -38.61 53.33 -75.83 111.11 -98.33 152.22 -21.94 40.56 -35.83 52.78 -49.72 42.78z"/>
  <path d="M1816.39 891.94 c-9.17 -9.17 -10.28 -19.72 -4.17 -35 2.22 -5.28 24.72 -30 51.39 -56.94 55.83 -55.83 66.94 -62.78 95.83 -60.56 26.39 2.22 45.56 12.78 67.5 37.22 10.28 11.39 20.28 20.56 22.22 20.56 7.78 0 6.94 -13.89 -2.22 -40.28 -10.56 -29.44 -9.72 -35.56 5 -36.94 11.94 -1.11 23.33 9.44 33.06 30.56 6.67 14.44 8.06 21.94 8.89 44.17 0.83 22.78 0.28 28.33 -5 39.44 -7.78 16.67 -18.06 25 -27.5 22.78 -9.44 -2.5 -30.83 -16.94 -57.22 -38.89 -29.44 -24.72 -35.56 -27.5 -55.56 -27.5 -27.78 0.28 -36.39 7.22 -72.22 58.89 -22.22 31.94 -39.72 50.56 -47.5 50.56 -2.22 0 -8.06 -3.61 -12.5 -8.06z"/>
  <path d="M1461.11 764.17 c-13.89 -4.17 -23.89 -11.11 -36.67 -24.72 -14.72 -15.83 -17.5 -20.56 -38.33 -67.22 -8.61 -19.17 -20.56 -42.22 -26.94 -51.39 -35.56 -52.5 -122.5 -108.06 -205 -131.11 -25.83 -6.94 -31.39 -7.5 -79.17 -7.5 -41.67 0 -56.94 1.11 -80.56 6.11 -36.67 7.5 -56.67 14.72 -57.78 20.56 -1.11 5 0.28 5.56 47.78 16.11 21.94 5 29.44 7.78 35.56 13.89 10 10.28 10.28 22.78 0.56 36.94 -3.89 5.83 -6.39 12.22 -5.83 14.17 0.83 1.94 23.06 8.89 51.11 15.56 64.72 15.56 108.33 28.61 129.17 39.17 15.28 7.78 46.67 33.61 46.67 38.61 0 1.11 -6.67 1.39 -15 0.56 -14.72 -1.11 -15.56 -0.83 -24.44 9.44 -15.56 17.78 -29.44 26.11 -43.06 26.11 -8.61 0 -13.61 -1.67 -17.78 -5.83 -5.28 -5.28 -5.83 -7.78 -3.89 -23.06 3.61 -31.39 3.61 -30.28 -6.94 -35.56 -21.11 -10.28 -54.17 -14.17 -102.78 -12.5 -31.39 1.11 -48.89 0.56 -55.28 -1.67 -13.33 -4.72 -25.56 -20.83 -27.22 -36.39 -1.94 -16.94 2.5 -26.39 19.17 -41.94 7.5 -6.94 13.33 -14.17 12.5 -16.11 -1.39 -4.72 -57.78 -6.11 -74.17 -1.67 -6.94 1.94 -17.22 5.56 -22.78 8.61 -11.39 5.56 -25.83 6.39 -36.67 2.22 -8.61 -3.06 -9.72 -14.44 -2.78 -24.44 11.67 -16.67 99.17 -48.89 163.61 -60.56 19.17 -3.33 42.22 -4.72 73.61 -5 52.78 0 81.67 5 137.5 23.61 68.06 22.5 161.11 86.67 188.61 130 18.06 28.33 70.83 128.61 72.78 138.61 1.94 9.72 -0.83 10.83 -15.56 6.39z"/>
 </g>
</svg>